Jim Douglas has been relentlessly pursuing the four outlaws who murdered his wife, but finds them in jail about to be hanged. While he waits to witness their execution, they escape; and the townspeople enlist Douglas' aid to recapture them.

Gregory Peck		Jim Douglass
Joan Collins		Josefa Velarde
Stephen Boyd 		Bill Zachary
Albert Salmi		Ed Taylor
Henry Silva		Lujan
Lee Van Cleef		Alfonso Parral
Andrew Duggan		Padre

   Video #0
      ID : 0
      Format : AVC
      Format/Info : Advanced Video Codec
      Codec ID : H264
      Duration : 1h 37mn
      Bit rate : 1 007 Kbps
      Width : 640 pixels
      Height : 480 pixels
      Display aspect ratio : 4:3
      Frame rate : 29.970 fps
      Resolution : 24 bits
      Bits/(Pixel*Frame) : 0.109
      Stream size : 705 MiB (88%)
   Audio #1
      ID : 1
      Format : MPEG Audio
      Format version : Version 1
      Format profile : Layer 3
      Codec ID : 55
      Codec ID/Hint : MP3
      Duration : 1h 37mn
      Bit rate mode : Constant
      Bit rate : 128 Kbps
      Channel(s) : 2 channels
      Sampling rate : 48.0 KHz
      Resolution : 16 bits
      Stream size : 89.6 MiB (11%)
      Alignment : Aligned on interleaves
      Interleave, duration : 24 ms (0.72 video frame)
      Interleave, preload duration : 24 ms
      Writing library : LAME3.98.2
